<svg xmlns="http://www.w3.org/2000/svg" xmlns:xlink="http://www.w3.org/1999/xlink" width="180px" height="38px" viewBox="0 -0.004602991975843906 180 38.00920486450195" preserveAspectRatio="xMidYMid meet" ><rect id="svgEditorBackground" x="0" y="0" width="236" height="40" style="stroke: none;fill:none;"/><defs id="svgEditorDefs"><linearGradient gradientUnits="objectBoundingBox" id="lgrd2-fire" spreadMethod="pad" x1="0%" x2="100%" y1="0%" y2="0%"><stop offset="0%" style="stop-color:rgb(255,255,0);stop-opacity:1"/><stop offset="100%" style="stop-color:rgb(255,0,0);stop-opacity:1"/></linearGradient><linearGradient gradientUnits="objectBoundingBox" id="lrgd2-e1" spreadMethod="pad" x1="0%" x2="100%" y1="0%" y2="0%"><stop offset="0%" stop-color="lightblue"/><stop offset="100%" stop-color="#ef5b2b"/></linearGradient><linearGradient gradientUnits="objectBoundingBox" id="lrgd2-e1-50-reflect" spreadMethod="reflect" x1="0%" x2="50%" y1="0%" y2="0%"><stop offset="0%" stop-color="lightblue"/><stop offset="100%" stop-color="#ef5b2b"/></linearGradient><pattern height="100%" id="ellipse-center" patternContentUnits="objectBoundingBox" patternUnits="objectBoundingBox" preserveAspectRatio="xMinYMin meet" width="100%" x="0%" y="0%"><circle cx="0.5" cy="0.5" r="0.5" style="fill:navy;fill-opacity:0.1;stroke:none;"/><circle cx="0.5" cy="0.5" r="0.4" style="fill:navy;fill-opacity:0.2;stroke:none;"/><circle cx="0.5" cy="0.5" r="0.3" style="fill:navy;fill-opacity:0.4;stroke:none;"/><circle cx="0.5" cy="0.5" r="0.2" style="fill:navy;fill-opacity:0.6;stroke:none;"/><circle cx="0.5" cy="0.5" r="0.1" style="fill:navy;fill-opacity:1;stroke:none;"/></pattern><pattern height="20" id="damier-p" patternContentUnits="userSpaceOnUse" patternUnits="userSpaceOnUse" preserveAspectRatio="xMinYMin meet" viewBox="0 0 20 20" width="20" x="0" y="0"><rect height="20" style="fill:#DFDBE5;stroke:none;" width="20" x="0" y="0"/><path d="M0 0h20L0 20z" class="c25"/></pattern><pattern height="10" id="hatch-black-dash-120" patternTransform="rotate(120) scale(0.4)" patternUnits="userSpaceOnUse" viewBox="0 0 24 10" width="24" x="0" y="0"><line x1="0" x2="24" y1="5" y2="5" class="c12"/></pattern><pattern height="10" id="hatch-black-dash-45" patternTransform="rotate(45) scale(0.4)" patternUnits="userSpaceOnUse" viewBox="0 0 24 10" width="24" x="0" y="0"><line x1="0" x2="24" y1="5" y2="5" class="c12"/></pattern><pattern height="10" id="hatch-black-45" patternTransform="rotate(45) scale(0.4)" patternUnits="userSpaceOnUse" viewBox="0 0 10 10" width="10" x="0" y="0"><line x1="0" x2="10" y1="5" y2="5" class="c11"/></pattern><pattern height="10" id="hatch-black-120" patternTransform="rotate(120) scale(0.4)" patternUnits="userSpaceOnUse" viewBox="0 0 10 10" width="10" x="0" y="0"><line x1="0" x2="10" y1="5" y2="5" class="c11"/></pattern><pattern height="12" id="zigzag-p" patternContentUnits="userSpaceOnUse" patternUnits="userSpaceOnUse" preserveAspectRatio="xMinYMin meet" viewBox="0 0 40 12" width="40" x="0" y="0"><rect height="12" style="fill:#DFDBE5;stroke:none;" width="40" x="0" y="0"/><path d="M0,6.2L6.2,0h5.7L0,11.8V6.2Zm40,5.7L28.2,0h5.7L40,6.2v5.7ZM6.2,12l12-12h3.7l12,12h-5.7L20,3.8L11.8,12H6.2Zm12,0L20,10.2L21.8,12h-3.7Z" class="c25"/></pattern><pattern height="20" id="square-p" patternContentUnits="userSpaceOnUse" patternUnits="userSpaceOnUse" preserveAspectRatio="xMinYMin meet" viewBox="0 0 20 20" width="20" x="0" y="0"><rect fill="#fff" height="20" width="20"/><rect fill="#ccc" height="10" width="10"/><rect fill="#ccc" height="10" width="10" x="10" y="10"/></pattern><pattern height="10" id="wheel-darkblue-usr" patternUnits="userSpaceOnUse" viewBox="-20 -20 168 168" width="10" x="0" y="0"><path d="M3.8,80h12.3c1.5,0,2.9,0.9,3.5,2.4c0,0,0,0,0,0c0.6,1.4,0.3,3-0.8,4.1l-8.7,8.7c-1.5,1.5-1.5,3.9,0,5.4l17.3,17.3c1.5,1.5,3.9,1.5,5.4,0l8.7-8.7c1.1-1.1,2.7-1.4,4.1-0.8c0,0,0,0,0,0c1.4,0.6,2.4,2,2.4,3.5v12.3c0,2.1,1.7,3.8,3.8,3.8h24.4c2.1,0,3.8-1.7,3.8-3.8v-12.3c0-1.5,0.9-2.9,2.4-3.5c0,0,0,0,0,0c1.4-0.6,3-0.3,4.1,0.8l8.7,8.7c1.5,1.5,3.9,1.5,5.4,0l17.3-17.3c1.5-1.5,1.5-3.9,0-5.4l-8.7-8.7c-1.1-1.1-1.4-2.7-0.8-4.1c0,0,0,0,0,0c0.6-1.4,2-2.4,3.5-2.4h12.3c2.1,0,3.8-1.7,3.8-3.8v-24.4c0-2.1-1.7-3.8-3.8-3.8h-12.3c-1.5,0-2.9-0.9-3.5-2.4c0,0,0,0,0,0c-0.6-1.4-0.3-3,0.8-4.1l8.7-8.7c1.5-1.5,1.5-3.9,0-5.4l-17.3-17.3c-1.5-1.5-3.9-1.5-5.4,0l-8.7,8.7c-1.1,1.1-2.7,1.4-4.1,0.8c0,0,0,0,0,0c-1.4-0.6-2.4-2-2.4-3.5v-12.3c0-2.1-1.7-3.8-3.8-3.8h-24.4c-2.1,0-3.8,1.7-3.8,3.8v12.3c0,1.5-0.9,2.9-2.4,3.5c0,0,0,0,0,0c-1.4,0.6-3,0.3-4.1-0.8l-8.7-8.7c-1.5-1.5-3.9-1.5-5.4,0l-17.3,17.3c-1.5,1.5-1.5,3.9,0,5.4l8.7,8.7c1.1,1.1,1.4,2.7,0.8,4.1c0,0,0,0,0,0c-0.6,1.4-2,2.4-3.5,2.4h-12.3c-2.1,0-3.8,1.7-3.8,3.8v24.4c0,2.1,1.7,3.8,3.8,3.8ZM64,32c17.7,0,32,14.3,32,32s-14.3,32-32,32s-32-14.3-32-32s14.3-32,32-32Z" style="fill:darkblue;stroke:none;"/><path d="M72,64c0,4.4-3.6,8-8,8s-8-3.6-8-8c0-4.4,3.6-8,8-8s8,3.6,8,8Z" style="fill:darkblue;stroke:none;"/></pattern><pattern height="10" id="hatch-blue-45" patternTransform="rotate(45) scale(0.4)" patternUnits="userSpaceOnUse" viewBox="0 0 10 10" width="10" x="0" y="0"><line x1="0" x2="10" y1="5" y2="5" class="c13"/></pattern><pattern height="40" id="parquet-p" patternContentUnits="userSpaceOnUse" patternUnits="userSpaceOnUse" preserveAspectRatio="xMinYMin meet" viewBox="0 0 40 40" width="40" x="0" y="0"><rect height="40" style="fill:#DFDBE5;stroke:none;" width="40" x="0" y="0"/><path d="M20 20.5V18H0v-2h20v-2H0v-2h20v-2H0V8h20V6H0V4h20V2H0V0h22v20h2V0h2v20h2V0h2v20h2V0h2v20h2V0h2v20h2v2H20v-1.5zM0 20h2v20H0V20zm4 0h2v20H4V20zm4 0h2v20H8V20zm4 0h2v20h-2V20zm4 0h2v20h-2V20zm4 4h20v2H20v-2zm0 4h20v2H20v-2zm0 4h20v2H20v-2zm0 4h20v2H20v-2z" class="c25"/></pattern><linearGradient gradientUnits="objectBoundingBox" id="lgrd2-peachpuff-sienna-h" spreadMethod="pad" x1="0%" x2="100%" y1="0%" y2="0%"><stop offset="0%" style="stop-color:peachpuff;  stop-opacity:1;"/><stop offset="100%" style="stop-color:sienna;  stop-opacity:1"/></linearGradient><linearGradient gradientUnits="objectBoundingBox" id="lgrd2-black-white" spreadMethod="pad" x1="0%" x2="98.8%" y1="50.2%" y2="50.2%" gradientTransform="matrix(1 0 0 1 0 0) scale(1.63043 1.63043)"><stop offset="0%" stop-color="black"/><stop offset="100%" stop-color="white"/></linearGradient><polygon id="svgEditorIconDefs" style="fill:rosybrown;"/><polygon id="svgEditorShapeDefs" style="fill:rosybrown;stroke:black;vector-effect:non-scaling-stroke;stroke-width:1px;"/></defs><text style="fill:silver; font-family: Arial; font-size: 20px; fill-opacity:0.44;fill-rule:v;" x="-41.7768440246582" y="36.082916259765625" id="e2_texte" transform="matrix(1.58933 0 0 1.57117 70.2103 -23.0816)"><tspan x="-41.77699661254883" style="font-weight: bold;">ErwinRudi</tspan></text><text style="fill:black;font-family:Arial;font-size:20px;font-weight:bold;" x="10.240107536315918" y="37.14357376098633" id="e3_texte" transform="matrix(1.59358 0 0 1.59358 -10.8938 -28.0395)">Erwin</text><text style="fill:#3D89E1;font-family:Arial;font-size:20px;font-weight:bold;" x="95.1818618774414" y="30.74007797241211" id="e4_texte" transform="matrix(1.57155 0 0 1.57155 -56.9159 -16.7472)">Rudi</text><path d="M1661.087287053489,10.63598516668614c0,26.5,-21.5,48,-47.999999999999545,48s-47.999999999999545,-21.5,-47.999999999999545,-48c0,-26.5,21.5,-48,47.999999999999545,-48s47.999999999999545,21.5,47.999999999999545,48Z" style="fill:gold; stroke:gold; vector-effect:non-scaling-stroke;stroke-width:1px;" id="e7_shape" transform="matrix(0.0637755 0 0 0.0637755 55.2789 10.4082)"/></svg>